<svg width="34" height="35" viewBox="0 0 34 35" fill="none" xmlns="http://www.w3.org/2000/svg">
<path d="M19.6351 18.4987L8.41511 30.3562C7.22511 31.6312 5.29136 31.6312 4.08011 30.3562C3.50504 29.7388 3.1853 28.9263 3.1853 28.0825C3.1853 27.2387 3.50504 26.4262 4.08011 25.8087L15.3001 13.93" stroke="white" stroke-linecap="round" stroke-linejoin="round"/>
<path d="M29.1975 17.5637L27.37 15.5875C26.4825 14.6117 25.9967 13.3365 26.01 12.0175V10.6362L21.9938 6.30125C21.2647 5.48802 20.3742 4.83561 19.379 4.38559C18.3839 3.93557 17.3059 3.69783 16.2138 3.6875H11.6875L13.0475 4.98375C14.0019 5.94982 14.7501 7.09963 15.2469 8.36348C15.7437 9.62733 15.9786 10.9789 15.9375 12.3363V14.8013L19.04 17.9887H22.6738L26.01 21.0062M24.4375 22.8125L30.8125 16.4375" stroke="white" stroke-linecap="round" stroke-linejoin="round"/>
</svg>
