<svg width="35" height="35" viewBox="0 0 35 35" fill="none" xmlns="http://www.w3.org/2000/svg">
<path d="M9.24875 14.2012C9.8875 14.8487 10.2594 15.6953 10.4891 16.5419C10.9375 18.1869 10.9375 20.2213 10.9375 21.7941V21.875C10.9375 26.3769 10.0953 29.05 9.14156 30.6403C8.78019 31.2658 8.30716 31.8196 7.74594 32.2744C7.5227 32.4471 7.28051 32.5939 7.02406 32.7119C7.02406 32.7119 6.74625 32.8125 6.5625 32.8125C6.40481 32.8 6.24954 32.7661 6.10094 32.7119C5.84449 32.5939 5.6023 32.4471 5.37906 32.2744C4.81784 31.8196 4.34481 31.2658 3.98344 30.6403C3.02969 29.0522 2.1875 26.3769 2.1875 21.875V21.7962C2.1875 20.2212 2.1875 18.1891 2.63594 16.5397C2.86563 15.6953 3.2375 14.8487 3.87625 14.1991C2.84375 13.2212 2.1875 11.6637 2.1875 9.84375C2.1875 9.13062 2.37781 8.27969 2.64031 7.49437C2.90281 6.70906 3.27031 5.89312 3.69469 5.23687C4.2 4.38375 4.91094 3.66844 5.46219 3.18719C5.76552 2.92273 6.08085 2.67236 6.40719 2.43687L6.47281 2.39312L6.4925 2.37781L6.49906 2.37344L6.50344 2.37125C6.7041 2.23468 6.94448 2.16874 7.18674 2.18381C7.42899 2.19888 7.65935 2.29411 7.84154 2.45449C8.02373 2.61488 8.14739 2.83131 8.19305 3.0697C8.23871 3.30809 8.20378 3.55489 8.09375 3.77125C8.07454 3.83435 8.06495 3.89998 8.06531 3.96594C8.06531 4.10375 8.10031 4.36625 8.43062 4.69437C8.59031 4.85406 8.71281 4.96781 8.84625 5.0925C8.95563 5.19312 9.07156 5.29812 9.21813 5.4425C9.5025 5.71375 9.80219 6.03312 10.0712 6.43344C10.6291 7.27125 10.9375 8.31906 10.9375 9.84375C10.9375 11.6637 10.2812 13.2191 9.24875 14.2012ZM6.5625 15.3125C6.01562 15.3125 5.6875 15.4831 5.44031 15.7281C5.16469 16.0059 4.92625 16.4566 4.74688 17.115C4.38375 18.4516 4.375 20.2059 4.375 21.875C4.375 26.1231 5.17344 28.3719 5.86031 29.5159C6.12281 29.9534 6.37 30.2356 6.5625 30.4128C6.8388 30.1495 7.07533 29.8473 7.26469 29.5159C7.95156 28.3697 8.75 26.1231 8.75 21.875C8.75 20.2059 8.74125 18.4516 8.37812 17.115C8.19875 16.4587 7.96031 16.0059 7.68469 15.7281C7.4375 15.4831 7.10719 15.3125 6.5625 15.3125ZM4.375 9.84375C4.375 12.1887 5.72031 13.125 6.5625 13.125C7.40469 13.125 8.75 12.1887 8.75 9.84375C8.75 8.63406 8.51156 8.04125 8.24906 7.6475C8.08903 7.41785 7.90497 7.20592 7.7 7.01531L7.42875 6.76156C7.24349 6.5919 7.06118 6.41906 6.88188 6.24312C6.64325 6.00582 6.43793 5.73722 6.27156 5.44469C5.99321 5.73754 5.74818 6.06035 5.54094 6.40719C5.23469 6.8775 4.93719 7.52281 4.71625 8.18781C4.48875 8.86594 4.375 9.46531 4.375 9.84375ZM15.3081 24.0034C14.5499 23.9188 13.804 23.7463 13.0856 23.4894C13.1119 22.941 13.125 22.3737 13.125 21.7875V21.14C13.8031 21.4616 14.5381 21.6869 15.3081 21.7962V17.5C15.3081 16.3397 15.7691 15.2269 16.5895 14.4064C17.41 13.5859 18.5228 13.125 19.6831 13.125H23.9816C23.8076 11.9155 23.3466 10.7652 22.6372 9.77032C21.9278 8.77539 20.9906 7.96471 19.9038 7.40603C18.8171 6.84735 17.6124 6.5569 16.3905 6.55895C15.1686 6.561 13.9649 6.85549 12.88 7.41781C12.7082 6.70267 12.4247 6.01907 12.04 5.39219C13.4578 4.6915 15.0235 4.34272 16.6046 4.37537C18.1858 4.40803 19.7358 4.82115 21.1234 5.57978C22.5111 6.33841 23.6955 7.42021 24.5764 8.7336C25.4574 10.047 26.0089 11.5533 26.1844 13.125H28.4309C29.5913 13.125 30.7041 13.5859 31.5245 14.4064C32.345 15.2269 32.8059 16.3397 32.8059 17.5V26.25C32.8059 27.4103 32.345 28.5231 31.5245 29.3436C30.7041 30.1641 29.5913 30.625 28.4309 30.625H19.6809C18.5206 30.625 17.4078 30.1641 16.5873 29.3436C15.7669 28.5231 15.3059 27.4103 15.3059 26.25L15.3081 24.0034ZM26.1866 15.3125C25.9388 17.5322 24.9435 19.6017 23.3642 21.181C21.7848 22.7604 19.7154 23.7557 17.4956 24.0034V26.25C17.4956 26.8302 17.7261 27.3866 18.1363 27.7968C18.5466 28.207 19.103 28.4375 19.6831 28.4375H28.4331C29.0133 28.4375 29.5697 28.207 29.9799 27.7968C30.3902 27.3866 30.6206 26.8302 30.6206 26.25V17.5C30.6206 16.9198 30.3902 16.3634 29.9799 15.9532C29.5697 15.543 29.0133 15.3125 28.4331 15.3125H26.1866ZM23.9816 15.3125H19.6831C19.103 15.3125 18.5466 15.543 18.1363 15.9532C17.7261 16.3634 17.4956 16.9198 17.4956 17.5V21.7984C19.1321 21.5626 20.6483 20.8034 21.8174 19.6343C22.9865 18.4651 23.7457 16.949 23.9816 15.3125Z" fill="white"/>
</svg>
