<svg width="37" height="37" viewBox="0 0 37 37" fill="none" xmlns="http://www.w3.org/2000/svg">
<path d="M20.1604 4.4986C20.6861 3.23289 22.4806 3.23289 23.0063 4.4986L23.7463 6.2746L25.6626 6.42876C27.0285 6.53668 27.5835 8.24331 26.5413 9.13593L25.0814 10.3862L25.5284 12.2578C25.846 13.5913 24.3953 14.6458 23.2252 13.9305L21.5833 12.9284L19.9414 13.9305C18.7713 14.6458 17.3206 13.5913 17.6382 12.2578L18.0853 10.3862L16.6253 9.13593C15.5832 8.24331 16.1366 6.53822 17.5041 6.42722L19.4219 6.27306L20.1604 4.4986ZM22.3218 6.8666L21.5833 5.0906L20.8433 6.8666C20.7346 7.12817 20.556 7.35474 20.327 7.52145C20.098 7.68816 19.8275 7.78856 19.5452 7.81164L17.6274 7.96581L19.0874 9.21456C19.3031 9.39895 19.4637 9.6393 19.5516 9.90914C19.6394 10.179 19.6511 10.4678 19.5853 10.7439L19.1382 12.6155L20.7801 11.6134C21.022 11.4657 21.2999 11.3876 21.5833 11.3876C21.8667 11.3876 22.1446 11.4657 22.3865 11.6134L24.0284 12.6155L23.5813 10.7439C23.5158 10.4681 23.5277 10.1795 23.6155 9.90999C23.7034 9.64045 23.8638 9.40035 24.0793 9.2161L25.5392 7.96426L23.6229 7.8101C23.3403 7.78771 23.0692 7.68778 22.8397 7.52132C22.6101 7.35487 22.4309 7.12832 22.3218 6.8666ZM12.452 13.7486C12.9777 12.4829 14.7722 12.4829 15.2979 13.7486L17.2605 18.4661L22.3526 18.8731C23.7201 18.9826 24.2735 20.6892 23.2314 21.5818L19.3525 24.9041L20.5396 29.8744C20.8557 31.208 19.4049 32.2625 18.2348 31.5471L13.875 28.8847L9.51516 31.5471C8.34503 32.2625 6.89432 31.208 7.21191 29.8744L8.39899 24.9041L4.51707 21.5833C3.47645 20.6907 4.02991 18.9841 5.39737 18.8746L10.4895 18.4676L12.452 13.7486ZM15.8375 19.0581L13.875 14.3406L11.914 19.0581C11.8049 19.3198 11.6256 19.5464 11.3961 19.7128C11.1665 19.8793 10.8955 19.9792 10.6128 20.0016L5.5207 20.4101L9.40107 23.734C9.61652 23.9185 9.77686 24.159 9.86445 24.4288C9.95203 24.6986 9.96347 24.9874 9.89749 25.2633L8.71041 30.2321L13.0718 27.5696C13.3137 27.422 13.5916 27.3439 13.875 27.3439C14.1584 27.3439 14.4363 27.422 14.6782 27.5696L19.038 30.2321L17.854 25.2633C17.7881 24.9874 17.7995 24.6986 17.8871 24.4288C17.9747 24.159 18.135 23.9185 18.3504 23.734L22.2293 20.4101L17.1372 20.0016C16.8548 19.9789 16.5841 19.8789 16.3548 19.7124C16.1255 19.546 15.9465 19.3196 15.8375 19.0581ZM29.99 13.5497C29.928 13.4169 29.8293 13.3045 29.7056 13.2257C29.5819 13.147 29.4383 13.1052 29.2917 13.1052C29.145 13.1052 29.0014 13.147 28.8777 13.2257C28.754 13.3045 28.6554 13.4169 28.5933 13.5497L27.2397 16.4481L24.3414 17.8016C24.2085 17.8637 24.0961 17.9624 24.0174 18.0861C23.9386 18.2098 23.8968 18.3534 23.8968 18.5C23.8968 18.6467 23.9386 18.7902 24.0174 18.9139C24.0961 19.0376 24.2085 19.1363 24.3414 19.1984L27.2397 20.552L28.5933 23.4503C28.6554 23.5832 28.754 23.6956 28.8777 23.7743C29.0014 23.853 29.145 23.8949 29.2917 23.8949C29.4383 23.8949 29.5819 23.853 29.7056 23.7743C29.8293 23.6956 29.928 23.5832 29.99 23.4503L31.3436 20.552L34.242 19.1984C34.3748 19.1363 34.4872 19.0376 34.5659 18.9139C34.6447 18.7902 34.6865 18.6467 34.6865 18.5C34.6865 18.3534 34.6447 18.2098 34.5659 18.0861C34.4872 17.9624 34.3748 17.8637 34.242 17.8016L31.3436 16.4481L29.99 13.5497ZM28.5193 17.3546L29.2917 15.6973L30.0656 17.3546C30.1418 17.5187 30.2733 17.6507 30.4371 17.7276L32.0944 18.5L30.4371 19.2739C30.2736 19.3504 30.1421 19.4819 30.0656 19.6455L29.2917 21.3028L28.5177 19.6455C28.4415 19.4814 28.31 19.3493 28.1462 19.2724L26.4889 18.5L28.1462 17.7261C28.3097 17.6496 28.4412 17.5181 28.5177 17.3546" fill="white"/>
</svg>
