<svg width="34" height="35" viewBox="0 0 34 35" fill="none" xmlns="http://www.w3.org/2000/svg">
<path d="M5.66683 18.9167V30.25H15.5835V18.9167H5.66683ZM17.0002 18.9167V30.25H26.9168V18.9167H17.0002ZM28.3335 18.9167V31.6667H4.25016V18.9167H2.8335V10.4167H7.14016L7.0835 9.70833C7.0835 8.3933 7.60589 7.13213 8.53576 6.20226C9.46563 5.27239 10.7268 4.75 12.0418 4.75C13.841 4.75 15.4277 5.71333 16.2918 7.15833C17.156 5.71333 18.7427 4.75 20.5418 4.75C21.8569 4.75 23.118 5.27239 24.0479 6.20226C24.9778 7.13213 25.5002 8.3933 25.5002 9.70833L25.4435 10.4167H29.7502V18.9167H28.3335ZM4.25016 11.8333V17.5H15.5835V11.8333H4.25016ZM28.3335 17.5V11.8333H17.0002V17.5H28.3335ZM24.0127 10.4167L24.0835 9.70833C24.0835 8.76902 23.7104 7.86819 23.0462 7.204C22.382 6.53981 21.4811 6.16667 20.5418 6.16667C19.6025 6.16667 18.7017 6.53981 18.0375 7.204C17.3733 7.86819 17.0002 8.76902 17.0002 9.70833V10.4167H24.0127ZM15.5835 10.4167V9.70833C15.5835 8.76902 15.2104 7.86819 14.5462 7.204C13.882 6.53981 12.9811 6.16667 12.0418 6.16667C11.1025 6.16667 10.2017 6.53981 9.53749 7.204C8.8733 7.86819 8.50016 8.76902 8.50016 9.70833L8.571 10.4167H15.5835Z" fill="white"/>
</svg>
