<svg width="43" height="43" viewBox="0 0 43 43" fill="none" xmlns="http://www.w3.org/2000/svg">
<path fill-rule="evenodd" clip-rule="evenodd" d="M22.5643 41.6706L22.5428 41.6741L22.4156 41.7368L22.3798 41.744L22.3547 41.7368L22.2275 41.6723C22.2084 41.6676 22.194 41.6712 22.1845 41.6831L22.1773 41.701L22.1469 42.4678L22.1558 42.5037L22.1737 42.527L22.3601 42.6596L22.3869 42.6667L22.4084 42.6596L22.5948 42.527L22.6163 42.4983L22.6234 42.4678L22.593 41.7028C22.5882 41.6837 22.5786 41.6729 22.5643 41.6706ZM23.0373 41.4681L23.0122 41.4717L22.6826 41.6383L22.6646 41.6562L22.6593 41.6759L22.6915 42.4463L22.7005 42.4678L22.7148 42.4822L23.0749 42.647C23.0976 42.653 23.115 42.6482 23.1269 42.6327L23.1341 42.6076L23.0731 41.5075C23.0672 41.4848 23.0552 41.4717 23.0373 41.4681ZM21.7563 41.4717C21.7484 41.4669 21.7389 41.4653 21.7299 41.4673C21.7209 41.4693 21.713 41.4748 21.7079 41.4824L21.6971 41.5075L21.6362 42.6076C21.6374 42.6291 21.6476 42.6434 21.6667 42.6506L21.6936 42.647L22.0537 42.4804L22.0716 42.4661L22.077 42.4463L22.1092 41.6759L22.1039 41.6544L22.0859 41.6365L21.7563 41.4717Z" fill="white"/>
<path fill-rule="evenodd" clip-rule="evenodd" d="M25.3074 35.7832C24.9096 36.077 24.4779 36.3207 24.0031 36.4461C22.6665 36.8044 21.2063 36.2705 19.9306 35.9122C11.379 33.5059 5.65102 29.7381 4.00806 24.1158C2.69656 19.6259 3.9579 15.1288 6.7314 12.3338C9.30065 9.74486 13.1097 8.69494 17.0174 10.3773C19.5615 6.96599 23.3867 5.96982 26.9056 6.92836C30.7039 7.96215 34.0436 11.2266 35.1526 15.7702C35.37 16.6613 35.4793 17.5685 35.4805 18.4918C35.9391 18.7271 36.3691 19.0138 36.7705 19.3518C38.8434 21.1058 39.9507 24.0854 39.3326 27.1832C38.5442 31.1356 34.8803 33.9109 29.6396 35.8924C28.742 36.2329 27.7602 36.6539 26.7801 36.4819C26.2355 36.3852 25.7481 36.1057 25.3074 35.7832ZM7.44806 23.1107C6.48952 19.8266 7.45344 16.6947 9.27556 14.8583C11.0242 13.0953 13.6168 12.4395 16.4834 14.1165C17.485 14.7024 18.7768 14.3548 19.3501 13.3497C20.9949 10.4633 23.5677 9.73411 25.9631 10.3863C28.4607 11.0671 30.8616 13.2959 31.6714 16.6195C31.7705 17.0184 31.8362 17.4275 31.8685 17.8468C31.2121 17.9307 30.5719 18.1125 29.9693 18.3861C28.0451 16.5102 25.4973 16.1411 23.2506 16.9689C20.7028 17.9059 18.6424 20.3282 18.1622 23.4511C17.6731 26.6492 19.1835 29.7667 21.9946 32.7642C21.6399 32.6746 21.2726 32.5671 20.9017 32.4632C12.6045 30.1287 8.53919 26.8463 7.44806 23.1107ZM21.7061 23.994C21.9928 22.1127 23.2094 20.803 24.4886 20.33C25.6711 19.8964 26.9844 20.124 27.9824 21.5663C28.1311 21.7812 28.3211 21.9645 28.5411 22.1055C28.7612 22.2466 29.007 22.3426 29.2644 22.3881C29.5218 22.4336 29.7857 22.4276 30.0407 22.3705C30.2958 22.3134 30.537 22.2063 30.7505 22.0554C32.1838 21.0395 33.4953 21.276 34.4556 22.0877C35.4984 22.9692 36.19 24.6175 35.8173 26.4826C35.4142 28.5072 33.3663 30.6536 28.3729 32.5402C28.0558 32.6603 27.7405 32.7893 27.4144 32.8842C27.1403 32.6818 26.8876 32.4542 26.6296 32.2339C22.5841 28.7527 21.3926 26.0347 21.7061 23.9922V23.994Z" fill="white"/>
</svg>
